<?xml version="1.0" encoding="utf-8"?>
<!-- Generator: Adobe Illustrator 25.4.1, SVG Export Plug-In . SVG Version: 6.00 Build 0)  -->
<svg version="1.0" id="Layer_1" xmlns="http://www.w3.org/2000/svg" xmlns:xlink="http://www.w3.org/1999/xlink" x="0px" y="0px"
	 viewBox="0 0 155.4 155.4" enable-background="new 0 0 155.4 155.4" xml:space="preserve">
<path fill-rule="evenodd" clip-rule="evenodd" fill="#E10600" d="M77.7,155.4L77.7,155.4C34.8,155.4,0,120.6,0,77.7v0
	C0,34.8,34.8,0,77.7,0h0c42.9,0,77.7,34.8,77.7,77.7v0C155.4,120.6,120.6,155.4,77.7,155.4z"/>
<path id="text" fill-rule="evenodd" clip-rule="evenodd" fill="#FFFFFF" d="M118.8,92.7h0.6v-2.9h0l1,2.9h0.5l1-2.9h0v2.9h0.6v-3.7
	h-0.9l-1,2.9h0l-1-2.9h-0.9L118.8,92.7L118.8,92.7z M115.3,89.5h1.2v3.2h0.7v-3.2h1.2v-0.6h-3L115.3,89.5L115.3,89.5z M107.7,92.7
	l30-30h-18.1l-30,30H107.7L107.7,92.7z M103.4,75.7H67.1c-11.1,0-13,0.6-17.7,5.3c-4.4,4.4-11.6,11.6-11.6,11.6h15.7l3.8-3.8
	c2.5-2.5,3.7-2.7,8.9-2.7h26.8L103.4,75.7L103.4,75.7z M48.8,78.9c-3.3,3.1-10.4,10-14.2,13.7H17.7c0,0,13.6-13.5,21.1-20.9
	c7.8-7.4,11.6-9.1,25.9-9.1h51.8l-11.2,11.2H65.7C55.7,73.9,53.4,74.6,48.8,78.9L48.8,78.9z"/>
</svg>
